<svg width="398" height="241" viewBox="0 0 398 241" fill="none" xmlns="http://www.w3.org/2000/svg">
<rect width="398" height="241" rx="10" fill="url(#paint0_linear)"/>
<mask id="mask0" mask-type="alpha" maskUnits="userSpaceOnUse" x="0" y="0" width="398" height="241">
<path d="M0 10C0 4.47715 3.99531 0 8.92377 0H389.076C394.005 0 398 4.47715 398 10V231C398 236.523 394.005 241 389.076 241H8.92377C3.99531 241 0 236.523 0 231V10Z" fill="url(#paint1_linear)"/>
</mask>
<g mask="url(#mask0)">
<ellipse cx="34.8027" cy="36" rx="68.713" ry="77" fill="url(#paint2_linear)"/>
<ellipse rx="15.5455" ry="14.6879" transform="matrix(0.458 0.888952 -0.8396 0.543205 145.277 164.798)" fill="url(#paint3_linear)"/>
<path d="M324.372 46.3293C409.152 -33.1615 467.605 65.5 474.298 65.5L467.605 142.338L381.487 339C-149.473 320 41.2879 235.554 128.948 210C261.02 171.5 239.592 125.82 324.372 46.3293Z" fill="url(#paint4_linear)"/>
</g>
<defs>
<linearGradient id="paint0_linear" x1="4.46189" y1="-1.02967e-05" x2="422.14" y2="207.489" gradientUnits="userSpaceOnUse">
<stop stop-color="#F0EFFF"/>
<stop offset="1" stop-color="#CFF1FF"/>
</linearGradient>
<linearGradient id="paint1_linear" x1="4.46189" y1="-1.02967e-05" x2="422.14" y2="207.489" gradientUnits="userSpaceOnUse">
<stop stop-color="#CFEDAC"/>
<stop offset="1" stop-color="#68CB88"/>
</linearGradient>
<linearGradient id="paint2_linear" x1="34.8027" y1="-41" x2="34.8027" y2="113" gradientUnits="userSpaceOnUse">
<stop stop-color="#FBF1F4"/>
<stop offset="1" stop-color="#FAF1FB" stop-opacity="0.75"/>
</linearGradient>
<linearGradient id="paint3_linear" x1="15.5455" y1="0" x2="15.5455" y2="29.3758" gradientUnits="userSpaceOnUse">
<stop stop-color="#FBF1F4"/>
<stop offset="1" stop-color="#FAF1FB" stop-opacity="0.75"/>
</linearGradient>
<linearGradient id="paint4_linear" x1="440.5" y1="41" x2="165.973" y2="499.413" gradientUnits="userSpaceOnUse">
<stop stop-color="#CFEDAC" stop-opacity="0.04"/>
<stop offset="0.0001" stop-color="#CFEDAC" stop-opacity="0.44"/>
<stop offset="1" stop-color="#68CB88" stop-opacity="0.07"/>
</linearGradient>
</defs>
</svg>
