<svg width="256" height="47" viewBox="0 0 256 47" fill="none" xmlns="http://www.w3.org/2000/svg">
<path d="M14.2083 43.7523C11.0634 43.7523 8.42391 43.025 6.28985 41.5703C4.15579 40.1156 2.56461 38.2133 1.5163 35.8634C0.505433 33.5136 0 30.9959 0 28.3103C0 25.662 0.505433 23.1816 1.5163 20.8691C2.56461 18.5192 4.15579 16.6169 6.28985 15.1622C8.42391 13.7076 11.0634 12.9802 14.2083 12.9802C18.1769 12.9802 21.3031 14.1179 23.587 16.3931C25.9082 18.6311 27.3122 21.4659 27.7989 24.8974H20.2174C19.9553 23.2189 19.3188 21.8761 18.308 20.8691C17.3345 19.8247 15.9867 19.3025 14.2645 19.3025C11.9807 19.3025 10.2959 20.179 9.21015 21.9321C8.16184 23.6852 7.63768 25.8112 7.63768 28.3103C7.63768 30.884 8.16184 33.0473 9.21015 34.8004C10.2959 36.5535 11.9807 37.43 14.2645 37.43C15.9493 37.43 17.2971 36.9265 18.308 35.9194C19.3188 34.875 19.9553 33.5136 20.2174 31.8351H27.7989C27.3122 35.2667 25.9082 38.1201 23.587 40.3953C21.3031 42.6333 18.1769 43.7523 14.2083 43.7523Z" fill="white"/>
<path d="M43.5933 43.6963C39.9242 43.6963 37.0601 42.2976 35.0009 39.5002C32.9417 36.7027 31.9122 33.01 31.9122 28.4222C31.9122 23.7598 32.9417 20.0298 35.0009 17.2324C37.0975 14.3976 40.0178 12.9802 43.7618 12.9802C46.2702 12.9802 48.2358 13.5584 49.6585 14.7146C51.0812 15.8336 52.0921 17.0272 52.6911 18.2954H53.1404V13.7076H60.9466V43.2487H53.1404V38.1574H52.6911C52.0172 39.5374 50.9689 40.8056 49.5462 41.9619C48.1235 43.1182 46.1392 43.6963 43.5933 43.6963ZM46.4574 37.43C48.6664 37.43 50.3324 36.5348 51.4556 34.7445C52.5788 32.9541 53.1404 30.8094 53.1404 28.3103C53.1404 25.8112 52.5788 23.6852 51.4556 21.9321C50.3699 20.179 48.7038 19.3025 46.4574 19.3025C44.2111 19.3025 42.545 20.179 41.4593 21.9321C40.3735 23.6852 39.8306 25.8112 39.8306 28.3103C39.8306 30.8467 40.3735 33.01 41.4593 34.8004C42.545 36.5535 44.2111 37.43 46.4574 37.43Z" fill="white"/>
<path d="M88.7694 34.7232C88.7694 36.4567 88.3272 37.9913 87.443 39.327C86.5587 40.6342 85.3321 41.6573 83.7632 42.3962C82.2228 43.1351 80.4685 43.5471 78.5002 43.6324V47H76.4892V43.5898C74.2927 43.3908 72.4243 42.7941 70.8839 41.7994C69.3436 40.8047 68.174 39.5827 67.3753 38.1334C66.6051 36.684 66.2058 35.1921 66.1773 33.6575H72.2532C72.3387 34.6237 72.7096 35.5899 73.3657 36.5562C74.0503 37.494 75.0914 38.1192 76.4892 38.4318V30.8014L75.6762 30.6309C74.2214 30.2614 72.9092 29.8209 71.7397 29.3094C70.5702 28.7979 69.4719 27.9595 68.445 26.7943C67.4181 25.6292 66.9047 24.0804 66.9047 22.1479C66.9047 19.7039 67.7747 17.7288 69.5147 16.2226C71.2548 14.688 73.5796 13.8354 76.4892 13.6649V10.4252H78.5002V13.6649C81.638 13.8354 84.0199 14.8159 85.6459 16.6063C87.3003 18.3682 88.1703 20.5564 88.2559 23.171H82.4795C82.4225 22.1763 82.0802 21.2101 81.4526 20.2723C80.8536 19.3345 79.8695 18.7377 78.5002 18.4819V25.9844L80.4257 26.4107C82.9359 27.0643 84.947 28.0448 86.4588 29.352C87.9992 30.6309 88.7694 32.4212 88.7694 34.7232ZM76.4892 25.5155V18.4393C75.4052 18.5814 74.5067 18.965 73.7935 19.5902C73.1089 20.2154 72.7666 20.9827 72.7666 21.8921C72.7666 22.8868 73.1517 23.6967 73.9219 24.3219C74.7206 24.9471 75.5336 25.3308 76.3608 25.4729L76.4892 25.5155ZM78.5002 38.5597C79.8124 38.4744 80.8821 38.105 81.7093 37.4513C82.5651 36.7977 82.993 35.9594 82.993 34.9363C82.993 33.9132 82.5794 33.1175 81.7521 32.5491C80.9249 31.9523 80.0121 31.5545 79.0137 31.3556L78.5002 31.2277V38.5597Z" fill="white"/>
<path d="M92.9907 1.67848H100.853V18.2394H101.246C101.92 16.7848 103.006 15.5539 104.503 14.5468C106.001 13.5024 107.817 12.9802 109.951 12.9802C113.807 12.9802 116.521 14.2111 118.094 16.6729C119.704 19.1346 120.509 21.9321 120.509 25.0653V43.2487H112.759V26.3521C112.759 24.1887 112.235 22.4916 111.186 21.2607C110.175 20.0298 108.715 19.4144 106.806 19.4144C104.934 19.4144 103.474 20.0485 102.425 21.3166C101.377 22.5848 100.853 24.2633 100.853 26.3521V43.2487H92.9907V1.67848Z" fill="white"/>
<path d="M130.033 22.7154H150.306V28.8698H130.033V22.7154Z" fill="white"/>
<path d="M169.5 43.4725C166.729 43.4725 164.67 43.0623 163.322 42.2417C162.012 41.3838 161.188 40.3394 160.851 39.1085C160.552 37.8403 160.402 36.2364 160.402 34.2969V1.28684H168.152V32.7303C168.152 34.0731 168.208 35.0802 168.321 35.7515C168.47 36.3856 168.845 36.9078 169.444 37.3181C170.08 37.6911 171.072 37.8776 172.42 37.8776C172.87 37.8776 173.394 37.8403 173.993 37.7657V43.1368C172.083 43.3606 170.586 43.4725 169.5 43.4725Z" fill="white"/>
<path d="M180.048 13.7076H187.798V43.2487H180.048V13.7076ZM183.867 8.61618C182.631 8.61618 181.602 8.20588 180.778 7.38529C179.954 6.52741 179.542 5.50167 179.542 4.30809C179.542 3.07721 179.954 2.05148 180.778 1.23089C181.602 0.410298 182.631 0 183.867 0C185.102 0 186.132 0.428948 186.955 1.28684C187.779 2.10743 188.191 3.11451 188.191 4.30809C188.191 5.50167 187.779 6.52741 186.955 7.38529C186.132 8.20588 185.102 8.61618 183.867 8.61618Z" fill="white"/>
<path d="M195.493 13.7076H203.355V18.2394H203.748C204.422 16.7848 205.508 15.5539 207.005 14.5468C208.503 13.5024 210.319 12.9802 212.453 12.9802C216.309 12.9802 219.023 14.2111 220.596 16.6729C222.206 19.1346 223.011 21.9321 223.011 25.0653V43.2487H215.261V26.3521C215.261 24.1887 214.737 22.4916 213.688 21.2607C212.677 20.0298 211.236 19.4144 209.364 19.4144C207.38 19.4144 205.882 20.0671 204.871 21.3726C203.86 22.6408 203.355 24.3006 203.355 26.3521V43.2487H195.493V13.7076Z" fill="white"/>
<path d="M229.998 1.67848H237.804V24.7855H238.085L247.071 13.7076H255.719L244.993 27.1913L256 43.2487H247.351L238.141 29.0376H237.804V43.2487H229.998V1.67848Z" fill="white"/>
</svg>
